<svg width="36" height="35" viewBox="0 0 36 35" fill="none" xmlns="http://www.w3.org/2000/svg">
<rect x="0.410645" y="0.271606" width="34.962" height="34.023" rx="7.3179" fill="#2196F3"/>
<path fill-rule="evenodd" clip-rule="evenodd" d="M13.2504 9.84016C12.7517 9.34857 12.7517 8.55155 13.2504 8.05996L16.9617 4.40131C17.4604 3.90972 18.2689 3.90972 18.7676 4.40131L22.4789 8.05996C22.9776 8.55155 22.9776 9.34857 22.4789 9.84016L18.7676 13.4988C18.2689 13.9904 17.4604 13.9904 16.9617 13.4988L13.2504 9.84016ZM17.1841 17.739C16.9348 17.4933 16.9348 17.0947 17.1841 16.8489L17.4306 16.606C17.6799 16.3602 18.0842 16.3602 18.3335 16.606L18.58 16.8489C18.8293 17.0947 18.8293 17.4933 18.58 17.739L18.3335 17.982C18.0842 18.2278 17.6799 18.2278 17.4306 17.982L17.1841 17.739ZM22.0091 16.4227C21.5105 16.9143 21.5105 17.7114 22.0091 18.2029L25.7205 21.8616C26.2192 22.3532 27.0277 22.3532 27.5264 21.8616L31.2377 18.2029C31.7364 17.7114 31.7364 16.9143 31.2377 16.4227L27.5264 12.7641C27.0277 12.2725 26.2192 12.2725 25.7205 12.7641L22.0091 16.4227ZM4.54583 18.1935C4.04716 17.702 4.04716 16.9049 4.54583 16.4133L8.2572 12.7547C8.75587 12.2631 9.56438 12.2631 10.0631 12.7547L13.7744 16.4133C14.2731 16.9049 14.2731 17.702 13.7744 18.1935L10.0631 21.8522C9.56438 22.3438 8.75587 22.3438 8.2572 21.8522L4.54583 18.1935ZM13.2504 24.726C12.7517 25.2176 12.7517 26.0146 13.2504 26.5062L16.9617 30.1649C17.4604 30.6565 18.2689 30.6565 18.7676 30.1649L22.4789 26.5062C22.9776 26.0146 22.9776 25.2176 22.4789 24.726L18.7676 21.0674C18.2689 20.5758 17.4604 20.5758 16.9617 21.0674L13.2504 24.726Z" fill="white"/>
</svg>
