<svg width="37" height="35" viewBox="0 0 37 35" fill="none" xmlns="http://www.w3.org/2000/svg">
<rect x="0.523193" y="0.0307617" width="35.8687" height="34.9054" rx="7.50769" fill="white"/>
<path fill-rule="evenodd" clip-rule="evenodd" d="M13.6957 9.8475C13.1841 9.34316 13.1841 8.52546 13.6957 8.02112L17.5033 4.26758C18.0149 3.76324 18.8444 3.76324 19.356 4.26758L23.1636 8.02112C23.6752 8.52546 23.6752 9.34316 23.1636 9.8475L19.356 13.601C18.8444 14.1054 18.0149 14.1054 17.5033 13.601L13.6957 9.8475ZM17.7315 17.9513C17.4757 17.6991 17.4757 17.2902 17.7315 17.0381L17.9843 16.7888C18.2402 16.5366 18.6549 16.5366 18.9107 16.7888L19.1636 17.0381C19.4194 17.2902 19.4194 17.6991 19.1636 17.9513L18.9107 18.2006C18.6549 18.4527 18.2402 18.4527 17.9843 18.2006L17.7315 17.9513ZM22.6817 16.6008C22.17 17.1051 22.17 17.9228 22.6817 18.4272L26.4893 22.1807C27.0009 22.6851 27.8304 22.6851 28.342 22.1807L32.1496 18.4272C32.6612 17.9228 32.6612 17.1051 32.1496 16.6008L28.342 12.8473C27.8304 12.3429 27.0009 12.3429 26.4893 12.8473L22.6817 16.6008ZM4.76542 18.4175C4.25382 17.9132 4.25382 17.0955 4.76542 16.5912L8.57305 12.8376C9.08465 12.3333 9.91413 12.3333 10.4257 12.8376L14.2334 16.5912C14.745 17.0955 14.745 17.9132 14.2334 18.4175L10.4257 22.1711C9.91413 22.6754 9.08465 22.6754 8.57305 22.1711L4.76542 18.4175ZM13.6957 25.1194C13.1841 25.6238 13.1841 26.4415 13.6957 26.9458L17.5033 30.6993C18.0149 31.2037 18.8444 31.2037 19.356 30.6993L23.1636 26.9458C23.6752 26.4415 23.6752 25.6238 23.1636 25.1194L19.356 21.3659C18.8444 20.8616 18.0149 20.8616 17.5033 21.3659L13.6957 25.1194Z" fill="#2196F3"/>
</svg>
